<?xml version="1.0" encoding="UTF-8"?>
<svg version="1.1" xmlns="http://www.w3.org/2000/svg" width="470" height="187">
<path d="M0 0 C155.1 0 310.2 0 470 0 C470 61.71 470 123.42 470 187 C314.9 187 159.8 187 0 187 C0 125.29 0 63.58 0 0 Z " fill="#000000" transform="translate(0,0)"/>
<path d="M0 0 C4.87995132 2.26569169 7.63239735 5.17373306 10 10 C10.94689683 15.92608468 9.81767253 19.73217744 7 25 C7.16882984 27.78569229 8.09649962 29.15825938 9.5625 31.5625 C11 34 11 34 11 37 C9.35 37.66 7.7 38.32 6 39 C5.76667969 38.4225 5.53335937 37.845 5.29296875 37.25 C4.06706856 34.7548816 3.00266907 32.94250305 1 31 C-1.87960453 30.56237013 -4.44361099 30.75045175 -7.34375 30.96484375 C-11.25891816 31.01666215 -13.14867669 29.57314542 -16 27 C-20.19988673 22.34607147 -21.46218431 18.58919892 -21.421875 12.421875 C-20.66957776 8.1031316 -18.01868085 5.06274919 -15 2 C-10.31887482 -1.12075012 -5.47961728 -0.5806217 0 0 Z " fill="#F0F0F0" transform="translate(258,87)"/>
<path d="M0 0 C1.98 0 3.96 0 6 0 C6 5.28 6 10.56 6 16 C7.65 15.01 9.3 14.02 11 13 C14.89829437 12.24692041 18.16977705 12.64946142 21.8125 14.1875 C25.24061732 17.02794006 26.81769145 19.68770691 27.43359375 24.12109375 C27.4440629 33.00939816 27.4440629 33.00939816 25.375 37.625 C21.86045669 41.13954331 18.88538298 42.76913678 13.9375 43.375 C10.5849881 42.94701976 8.67421708 42.04498953 6 40 C6 39.34 6 38.68 6 38 C5.34 38 4.68 38 4 38 C4 39.32 4 40.64 4 42 C2.68 42 1.36 42 0 42 C0 28.14 0 14.28 0 0 Z " fill="#EDEDED" transform="translate(302,75)"/>
<path d="M0 0 C3.99671031 2.34493336 7.11617671 4.58315783 8.7421875 9.0546875 C9.52600384 14.98929692 8.8198915 19.82259071 5.7421875 25.0546875 C0.4651153 29.23236966 -3.55669094 30.50900083 -10.2578125 30.0546875 C-14.93951518 28.31052376 -17.47030441 26.18432911 -20.2578125 22.0546875 C-21.81190068 17.39242297 -21.98286306 12.91320387 -21.2578125 8.0546875 C-16.90565053 0.0450083 -8.63932691 -3.61715763 0 0 Z " fill="#F6F6F6" transform="translate(144.2578125,87.9453125)"/>
<path d="M0 0 C3.06184797 2.44947837 4.99875261 4.32823826 5.52807617 8.31542969 C5.51236572 9.25805664 5.49665527 10.20068359 5.48046875 11.171875 C5.47080078 12.19667969 5.46113281 13.22148438 5.45117188 14.27734375 C5.42603516 15.34082031 5.40089844 16.40429688 5.375 17.5 C5.35469727 19.11841797 5.35469727 19.11841797 5.33398438 20.76953125 C5.29866584 23.4301942 5.24934199 26.08984296 5.1875 28.75 C1.85416667 28.75 -1.47916667 28.75 -4.8125 28.75 C-5.50085938 28.86859375 -6.18921875 28.9871875 -6.8984375 29.109375 C-10.83292742 29.78078966 -13.11514208 30.06962238 -16.8125 28.375 C-19.63440293 24.6712524 -20.21705725 21.36525515 -19.8125 16.75 C-17.31306902 11.95942396 -13.83241055 10.42330352 -8.8125 8.75 C-5.875 8.5625 -5.875 8.5625 -3.8125 8.75 C-3.8125 7.76 -3.8125 6.77 -3.8125 5.75 C-8.32867599 5.67345464 -12.40335217 5.64771304 -16.8125 6.75 C-17.1425 4.77 -17.4725 2.79 -17.8125 0.75 C-11.77982505 -1.26089165 -6.08060348 -2.70249044 0 0 Z " fill="#F6F6F6" transform="translate(207.8125,88.25)"/>
<path d="M0 0 C4.0068542 2.11682863 6.36587652 3.77150466 8 8 C8.22705078 10.47363281 8.22705078 10.47363281 8.1953125 13.203125 C8.18886719 14.1828125 8.18242187 15.1625 8.17578125 16.171875 C8.15902344 17.18765625 8.14226562 18.2034375 8.125 19.25 C8.11597656 20.28125 8.10695312 21.3125 8.09765625 22.375 C8.07412011 24.91690287 8.04124023 27.4583328 8 30 C5.03 30 2.06 30 -1 30 C-1.06058594 28.56785156 -1.12117188 27.13570312 -1.18359375 25.66015625 C-1.26798104 23.79425959 -1.35262993 21.92837476 -1.4375 20.0625 C-1.47681641 19.11697266 -1.51613281 18.17144531 -1.55664062 17.19726562 C-1.59853516 16.29814453 -1.64042969 15.39902344 -1.68359375 14.47265625 C-1.72025146 13.64000244 -1.75690918 12.80734863 -1.79467773 11.94946289 C-1.79367103 9.99661142 -1.79367103 9.99661142 -3 9 C-5.5 8.83333333 -5.5 8.83333333 -8 9 C-9.58403524 10.58403524 -9.21974935 12.2771638 -9.31640625 14.47265625 C-9.35830078 15.37177734 -9.40019531 16.27089844 -9.44335938 17.19726562 C-9.50233398 18.61555664 -9.50233398 18.61555664 -9.5625 20.0625 C-9.60568359 21.01189453 -9.64886719 21.96128906 -9.69335938 22.93945312 C-9.79979132 25.29278176 -9.90043154 27.64637099 -10 30 C-12.97 30 -15.94 30 -19 30 C-19 20.43 -19 10.86 -19 1 C-16.69 1 -14.38 1 -12 1 C-11.67 1.66 -11.34 2.32 -11 3 C-10.484375 2.505 -9.96875 2.01 -9.4375 1.5 C-6.04826907 -0.58568057 -3.92467225 -0.47366734 0 0 Z " fill="#F5F5F5" transform="translate(176,87)"/>
<path d="M0 0 C3.12291165 1.68012647 5.39164837 3.78329674 7 7 C7 9.97 7 12.94 7 16 C0.4 16 -6.2 16 -13 16 C-10.84747994 22.57359151 -10.84747994 22.57359151 -8.171875 24.4296875 C-5.456196 25.14279745 -3.05549504 25.1917975 -0.25 25.125 C0.73484375 25.10695313 1.7196875 25.08890625 2.734375 25.0703125 C3.48203125 25.04710938 4.2296875 25.02390625 5 25 C5 26.32 5 27.64 5 29 C-0.50040317 30.83346772 -6.6547674 31.07323439 -11.9375 28.4375 C-16.30932031 24.95788791 -17.58562074 21.8959989 -18.34765625 16.5703125 C-18.67456431 11.05478681 -17.8451307 7.69541853 -14.38671875 3.375 C-10.10983214 -0.86574391 -5.69011568 -0.89239392 0 0 Z " fill="#EBEBEB" transform="translate(350,88)"/>
<path d="M0 0 C0.7734375 -0.00257812 1.546875 -0.00515625 2.34375 -0.0078125 C4.5 0.125 4.5 0.125 7.5 1.125 C7.17 3.435 6.84 5.745 6.5 8.125 C3.53 7.795 0.56 7.465 -2.5 7.125 C-2.17 8.445 -1.84 9.765 -1.5 11.125 C0.80368736 12.19152192 3.14018187 13.18921005 5.5 14.125 C7.4375 15.375 7.4375 15.375 8.5 17.125 C9.0427086 21.31160919 8.9575921 23.39916426 6.6875 27 C3.04990331 30.53366535 -0.19815762 30.26087004 -5.0625 30.25 C-6.21878906 30.25257812 -7.37507813 30.25515625 -8.56640625 30.2578125 C-11.5 30.125 -11.5 30.125 -13.5 29.125 C-13.17 26.815 -12.84 24.505 -12.5 22.125 C-11.984375 22.29 -11.46875 22.455 -10.9375 22.625 C-7.76636124 23.27549 -4.72781666 23.1870734 -1.5 23.125 C-1.5 22.135 -1.5 21.145 -1.5 20.125 C-2.43972656 19.74408203 -2.43972656 19.74408203 -3.3984375 19.35546875 C-4.21570313 19.01128906 -5.03296875 18.66710937 -5.875 18.3125 C-6.68710938 17.97605469 -7.49921875 17.63960937 -8.3359375 17.29296875 C-10.5 16.125 -10.5 16.125 -12.5 13.125 C-12.9375 9.75 -12.9375 9.75 -12.5 6.125 C-8.76949555 1.48707555 -5.85691864 -0.01952306 0 0 Z " fill="#F4F4F4" transform="translate(112.5,86.875)"/>
<path d="M0 0 C2.97672584 1.77280561 5.42804007 3.85608015 7 7 C7.42071592 10.05920574 7.48514117 12.9467746 7 16 C4.81840855 18.75569447 3.12822506 20.43588747 0 22 C-4.97067782 22.3751455 -8.05151502 22.15878799 -12 19 C-14.31069059 16.0291121 -14.47087809 12.74838896 -14.39453125 9.03515625 C-13.68647817 5.38272403 -11.62465368 3.56216192 -9 1 C-5.85088521 -0.57455739 -3.47991184 -0.34799118 0 0 Z " fill="#050505" transform="translate(256,91)"/>
<path d="M0 0 C1.65 0 3.3 0 5 0 C5.04898437 1.31355469 5.09796875 2.62710938 5.1484375 3.98046875 C5.22349468 5.71616595 5.29904123 7.45184203 5.375 9.1875 C5.4059375 10.05181641 5.436875 10.91613281 5.46875 11.80664062 C5.67345389 16.25895022 5.93722933 19.94992587 8 24 C12.60163187 24.46044216 12.60163187 24.46044216 16.69848633 22.79370117 C18.3847145 20.46979978 18.42516328 18.96961192 18.51171875 16.11328125 C18.54716797 15.17548828 18.58261719 14.23769531 18.61914062 13.27148438 C18.64169922 12.29501953 18.66425781 11.31855469 18.6875 10.3125 C18.72166016 9.32443359 18.75582031 8.33636719 18.79101562 7.31835938 C18.87350538 4.87901947 18.94265068 2.44003937 19 0 C20.65 0 22.3 0 24 0 C24 9.57 24 19.14 24 29 C22.35 29 20.7 29 19 29 C18.67 28.34 18.34 27.68 18 27 C17.13375 27.495 16.2675 27.99 15.375 28.5 C11.76415174 30.10482145 9.88289028 30.66091749 6 30 C2.89835231 27.44975635 1.27433584 25.82300753 0 22 C-0.08178114 20.29983156 -0.10749501 18.59663703 -0.09765625 16.89453125 C-0.09443359 15.91162109 -0.09121094 14.92871094 -0.08789062 13.91601562 C-0.07951172 12.89185547 -0.07113281 11.86769531 -0.0625 10.8125 C-0.05798828 9.77673828 -0.05347656 8.74097656 -0.04882812 7.67382812 C-0.0370401 5.11582734 -0.02058515 2.55794267 0 0 Z " fill="#F5F5F5" transform="translate(272,88)"/>
<path d="M0 0 C0 2.97 0 5.94 0 9 C-1.7015625 9.4640625 -1.7015625 9.4640625 -3.4375 9.9375 C-6.78775099 10.62924531 -6.78775099 10.62924531 -8 12 C-8.15582303 13.34015221 -8.25044142 14.68758903 -8.31640625 16.03515625 C-8.35830078 16.84404297 -8.40019531 17.65292969 -8.44335938 18.48632812 C-8.48267578 19.33646484 -8.52199219 20.18660156 -8.5625 21.0625 C-8.60568359 21.91650391 -8.64886719 22.77050781 -8.69335938 23.65039062 C-8.79976702 25.76672037 -8.90041731 27.88333813 -9 30 C-11.97 30 -14.94 30 -18 30 C-18 20.43 -18 10.86 -18 1 C-15.36 1 -12.72 1 -10 1 C-9.67 1.66 -9.34 2.32 -9 3 C-8.443125 2.505 -7.88625 2.01 -7.3125 1.5 C-4.61837017 -0.24754367 -3.14624993 -0.26218749 0 0 Z " fill="#F5F5F5" transform="translate(236,87)"/>
<path d="M0 0 C13.90592459 -1.13005256 27.03419404 4.30093602 37.703125 12.96484375 C48.3301736 22.38098715 57.27212537 35.22460605 58.17578125 49.84375 C58.18587242 52.23872013 58.13733218 54.60940282 58 57 C56.68 57 55.36 57 54 57 C53.98582031 56.35675781 53.97164063 55.71351562 53.95703125 55.05078125 C53.21787404 41.04674876 47.05099168 27.52574984 36.9375 17.75 C28.14184594 10.40517547 16.88798226 5.62701946 5.625 3.875 C4.56539063 3.70742188 3.50578125 3.53984375 2.4140625 3.3671875 C1.21910156 3.18542969 1.21910156 3.18542969 0 3 C0 2.01 0 1.02 0 0 Z " fill="#488FBD" transform="translate(335,60)"/>
<path d="M0 0 C3.5625 0.5625 3.5625 0.5625 6.5 2.4375 C9.38803518 6.81331088 9.35906253 10.45611494 8.5625 15.5625 C7.39817931 18.04300929 6.46824048 19.65675952 4.5625 21.5625 C-2.62318169 22.1514903 -2.62318169 22.1514903 -5.66796875 19.94921875 C-7.9737186 16.83925593 -7.97274359 14.90405098 -7.9375 11.0625 C-7.95296875 9.37640625 -7.95296875 9.37640625 -7.96875 7.65625 C-7.10333769 2.61649593 -4.96503773 0.81246072 0 0 Z " fill="#030303" transform="translate(315.4375,91.4375)"/>
<path d="M0 0 C11.47974085 1.34447415 21.73994006 8.76808137 29.05078125 17.4296875 C34.19185728 24.11018177 41 33.28344406 41 42 C40.01 42 39.02 42 38 42 C37.70867187 41.32195312 37.41734375 40.64390625 37.1171875 39.9453125 C28.90854665 21.30808391 18.94390249 10.77889716 0 3 C0 2.01 0 1.02 0 0 Z " fill="#468CBA" transform="translate(358,55)"/>
<path d="M0 0 C3 0.5 3 0.5 4.875 2 C6.80268135 6.28373633 6.47904041 10.42415824 5.4375 14.9375 C3.09150686 17.48749255 0.31661719 17.25432465 -3 17.5 C-6.37318554 13.00241928 -6.51804578 9.93948065 -6 4.5 C-4.45702531 1.07116735 -3.72541072 0.62090179 0 0 Z " fill="#0B0B0B" transform="translate(138,93.5)"/>
<path d="M0 0 C3 0.5 3 0.5 5.375 2.1875 C7 4.5 7 4.5 7 9.5 C2.05 9.5 -2.9 9.5 -8 9.5 C-6.87005 3.85024998 -5.93592746 0.98932124 0 0 Z " fill="#191919" transform="translate(345,90.5)"/>
<path d="M0 0 C10.78231405 6.27056562 18.13467401 14.50902907 23 26 C22.01 26 21.02 26 20 26 C18.4921875 23.91015625 18.4921875 23.91015625 16.875 21.0625 C12.26586976 13.4945425 6.77133955 7.36285729 -1 3 C-0.67 2.01 -0.34 1.02 0 0 Z " fill="#468BB9" transform="translate(378,53)"/>
<path d="M0 0 C0.36075949 4.44936709 0.36075949 4.44936709 -1.1875 6.8125 C-3.55982525 8.36678206 -5.22041345 8.22537188 -8 8 C-8.33 6.35 -8.66 4.7 -9 3 C-5.92807025 0.26939578 -4.09590633 -0.34132553 0 0 Z " fill="#1B1B1B" transform="translate(205,103)"/>
</svg>
